<?xml version="1.0" encoding="UTF-8" standalone="no"?>
<!-- Created with Inkscape (http://www.inkscape.org/) -->

<svg
   xmlns:dc="http://purl.org/dc/elements/1.1/"
   xmlns:cc="http://creativecommons.org/ns#"
   xmlns:rdf="http://www.w3.org/1999/02/22-rdf-syntax-ns#"
   xmlns:svg="http://www.w3.org/2000/svg"
   xmlns="http://www.w3.org/2000/svg"
   xmlns:sodipodi="http://sodipodi.sourceforge.net/DTD/sodipodi-0.dtd"
   xmlns:inkscape="http://www.inkscape.org/namespaces/inkscape"
   width="45"
   height="45"
   id="svg2993"
   version="1.1"
   inkscape:version="0.91 r13725"
   sodipodi:docname="BlackKnight.svg">
  <defs
     id="defs2995" />
  <sodipodi:namedview
     id="base"
     pagecolor="#ffffff"
     bordercolor="#666666"
     borderopacity="1.0"
     inkscape:pageopacity="0.0"
     inkscape:pageshadow="2"
     inkscape:zoom="13.29868"
     inkscape:cx="20.19985"
     inkscape:cy="23.948831"
     inkscape:current-layer="layer1"
     showgrid="true"
     inkscape:grid-bbox="true"
     inkscape:document-units="px"
     inkscape:window-width="1920"
     inkscape:window-height="1017"
     inkscape:window-x="-8"
     inkscape:window-y="-8"
     inkscape:window-maximized="1" />
  <metadata
     id="metadata2998">
    <rdf:RDF>
      <cc:Work
         rdf:about="">
        <dc:format>image/svg+xml</dc:format>
        <dc:type
           rdf:resource="http://purl.org/dc/dcmitype/StillImage" />
        <dc:title />
      </cc:Work>
    </rdf:RDF>
  </metadata>
  <g
     id="layer1"
     inkscape:label="Layer 1"
     inkscape:groupmode="layer">
    <path
       sodipodi:type="arc"
       style="fill:#000000;fill-opacity:1;stroke:none"
       id="path4192"
       sodipodi:cx="22.5"
       sodipodi:cy="22.5"
       sodipodi:rx="22.5"
       sodipodi:ry="22.5"
       d="M 45,22.5 A 22.5,22.5 0 0 1 22.5,45 22.5,22.5 0 0 1 0,22.5 22.5,22.5 0 0 1 22.5,0 22.5,22.5 0 0 1 45,22.5 Z" />
    <g
       id="g4167"
       transform="matrix(1.0375963,0,0,1.0375963,-0.7423985,-0.55160834)"
       style="fill:#ffffff;fill-opacity:1">
      <path
         d="m 22.22,38.3 a 3.51,3.51 0 0 1 -3.51,3.51 3.51,3.51 0 0 1 -3.51,-3.51 3.51,3.51 0 0 1 3.51,-3.51 3.51,3.51 0 0 1 3.51,3.51 z"
         transform="matrix(0.96376,0,0,0.96376,1.4423,1.4423)"
         id="path3835"
         style="fill:#ffffff;stroke:none" />
      <path
         d="M 22.5,9 C 19.5,9 19,14 18,16 c -2,3 -5,3 -5,3 0-1 1-3 1-4 C 14,11 13.5,9.5 12,8 10,7 9,8 9,8 l 0,3 c 0,4 3,5 3,5 0-2 1-3 2-3 2,0 2,3 2,3 l 0,1 c 0,0 -1.5,0 -2.5,0.5 -1.5,1 -1.5,2 -1.5,2 0,0 0.5,1 1.5,1 C 15,20.5 16,20 16,20 l 0,2 c -3,2 -3,2 -4,5 l 1,0 c 1,-2 2,-3 3,-3 1,0 1,1 1,1 l 2.5,0 c 0.5,-1 1,-1 1,-1 1,0 1.5,2 1.5,2 l 1,0 c 0,-2 0,-2.5 -0.5,-4 l 0.5,0 1.5,0 0,2.5 c 0,1.5 0.5,2 1.5,2.5 l 1.5,0 0-5.5 c -1,-2 -1.5,-4 -1.5,-4 0,0 -1,3 -3,3 -1,0 -1.5,-1 -1.5,-1 C 24,15 24,11 22.5,9 z"
         id="path3837"
         style="fill:#ffffff;stroke:none" />
    </g>
  </g>
</svg> 